<svg xmlns="http://www.w3.org/2000/svg" viewBox="0 0 800 800" width="400" height="400">
  <defs>
    <linearGradient id="capGradient" x1="0%" y1="0%" x2="100%" y2="100%">
      <stop offset="0%" stop-color="#2c3e50" />
      <stop offset="100%" stop-color="#000000" />
    </linearGradient>
    <linearGradient id="topGradient" x1="0%" y1="0%" x2="100%" y2="100%">
      <stop offset="0%" stop-color="#34495e" />
      <stop offset="100%" stop-color="#2c3e50" />
    </linearGradient>
    <filter id="shadow" x="-30%" y="-30%" width="160%" height="160%">
      <feGaussianBlur in="SourceAlpha" stdDeviation="8" />
      <feOffset dx="5" dy="5" result="offsetblur" />
      <feComponentTransfer>
        <feFuncA type="linear" slope="0.4" />
      </feComponentTransfer>
      <feMerge>
        <feMergeNode />
        <feMergeNode in="SourceGraphic" />
      </feMerge>
    </filter>
  </defs>
  
  <!-- Graduation Cap - Centered and Enhanced -->
  <g transform="translate(400, 400) scale(1.8)" filter="url(#shadow)">
    <!-- Cap Base (Mortarboard) -->
    <rect x="-120" y="-25" width="240" height="50" fill="url(#capGradient)" rx="8" ry="8" />
    
    <!-- Cap Top (Square Board) -->
    <rect x="-100" y="-25" width="200" height="200" fill="url(#topGradient)" transform="rotate(45)" rx="5" ry="5" />
    
    <!-- Cap Button/Center -->
    <circle cx="0" cy="-25" r="8" fill="#1a252f" />
    
    <!-- Tassel Cord -->
    <path d="M0,-25 Q-15,-10 -25,20" fill="none" stroke="#8b4513" stroke-width="3" />
    
    <!-- Tassel -->
    <g transform="translate(-25, 20)">
      <rect x="-8" y="0" width="16" height="25" fill="#8b4513" rx="3" ry="3" />
      <!-- Tassel Strands -->
      <g stroke="#8b4513" stroke-width="1.5" opacity="0.8">
        <path d="M-6,25 L-6,40" />
        <path d="M-3,25 L-3,42" />
        <path d="M0,25 L0,38" />
        <path d="M3,25 L3,41" />
        <path d="M6,25 L6,39" />
      </g>
    </g>
  </g>
  
  <!-- Decorative Elements -->
  <g stroke="#3498db" stroke-width="4" stroke-linecap="round" opacity="0.6" fill="none">
    <!-- Celebration Lines -->
    <path d="M200,250 Q250,270 300,250" stroke-dasharray="20,15" />
    <path d="M180,320 Q240,350 300,320" stroke-dasharray="20,15" />
    <path d="M160,390 Q230,430 300,390" stroke-dasharray="20,15" />
    <path d="M500,250 Q550,270 600,250" stroke-dasharray="20,15" />
    <path d="M500,320 Q560,350 620,320" stroke-dasharray="20,15" />
    <path d="M500,390 Q570,430 640,390" stroke-dasharray="20,15" />
  </g>
  
  <!-- Stars for celebration -->
  <g fill="#f39c12" opacity="0.8">
    <path d="M150,200 L155,210 L165,210 L157,218 L160,228 L150,222 L140,228 L143,218 L135,210 L145,210 Z" />
    <path d="M650,180 L655,190 L665,190 L657,198 L660,208 L650,202 L640,208 L643,198 L635,190 L645,190 Z" />
    <path d="M120,500 L125,510 L135,510 L127,518 L130,528 L120,522 L110,528 L113,518 L105,510 L115,510 Z" />
    <path d="M680,520 L685,530 L695,530 L687,538 L690,548 L680,542 L670,548 L673,538 L665,530 L675,530 Z" />
  </g>
</svg>